<?xml version="1.0" encoding="iso-8859-1"?>
<!-- Generator: Adobe Illustrator 19.0.0, SVG Export Plug-In . SVG Version: 6.00 Build 0)  -->
<svg version="1.1" id="Layer_1" xmlns="http://www.w3.org/2000/svg" xmlns:xlink="http://www.w3.org/1999/xlink" x="0px" y="0px"
	 viewBox="0 0 392.541 392.541" style="enable-background:new 0 0 392.541 392.541;" xml:space="preserve">
<g>
	
		<rect x="253.681" y="31.017" transform="matrix(-0.7071 0.7071 -0.7071 -0.7071 520.2337 -77.2364)" style="fill:#56ACE0;" width="44.864" height="76.217"/>
	
		<rect x="206.509" y="78.159" transform="matrix(0.7071 -0.7071 0.7071 0.7071 -15.1581 195.9398)" style="fill:#56ACE0;" width="44.864" height="76.217"/>
	
		<rect x="93.875" y="190.823" transform="matrix(-0.7071 0.7071 -0.7071 -0.7071 360.4278 308.5698)" style="fill:#56ACE0;" width="44.864" height="76.217"/>
	
		<rect x="31.004" y="253.633" transform="matrix(0.7071 0.7071 -0.7071 0.7071 215.45 31.9877)" style="fill:#56ACE0;" width="76.217" height="44.864"/>
</g>
<path style="fill:#FFC10D;" d="M211.855,261.869c0.065-0.129,0.129-0.323,0.323-0.453c0,0,6.788-14.739,20.622-28.638
	c12.929-12.994,29.026-20.881,29.156-20.881l-38.788-38.788l-22.82,22.82c-4.267,4.267-11.119,4.267-15.451,0
	c-4.267-4.267-4.267-11.119,0-15.451l22.82-22.82l-14.739-14.675l-7.887,7.887c-4.267,4.267-11.119,4.267-15.451,0
	c-4.267-4.267-4.267-11.119,0-15.451l7.887-7.887l-77.253-77.253l-49.972,49.972L211.855,261.869z"/>
<path style="fill:#56ACE0;" d="M248.186,248.163c-32.065,32.065-34.457,82.683-7.24,117.527l124.768-124.768
	C346.19,221.335,287.62,208.794,248.186,248.163z"/>
<path style="fill:#194F82;" d="M392.541,240.471c0-2.844-1.875-5.172-3.168-7.758c-34.715-33.164-70.982-36.461-104.857-29.091
	l-29.156-29.156l86.626-86.626c4.267-4.267,4.267-11.119,0-15.451L272.752,3.153c-4.59-4.461-11.766-3.879-15.451,0L170.675,89.78
	l-62.578-62.578c-4.073-4.073-11.378-4.073-15.451,0L27.224,92.624c-4.267,4.267-4.267,11.119,0,15.451l62.578,62.578L3.176,257.279
	c-4.202,3.685-4.267,11.766,0,15.451l69.301,69.301c7.111,6.077,13.317,2.133,15.451,0l86.626-86.626l29.156,29.156
	c-8.857,36.396,0.711,76.412,29.026,104.792c2.004,2.004,4.784,3.168,7.758,3.168c2.844,0,5.624-1.164,7.758-3.168l61.996-61.996
	l48.808,48.808c6.465,6.206,13.317,2.133,15.451,0c4.267-4.267,4.267-11.119,0-15.451l-48.808-48.808l63.741-63.741
	C391.378,246.095,392.541,243.315,392.541,240.471z M240.945,365.691c-27.216-34.844-24.824-85.527,7.24-117.527
	c39.434-39.434,98.004-26.828,117.527-7.24L240.945,365.691z M265.059,26.232l53.851,53.851l-31.741,31.741l-53.851-53.851
	L265.059,26.232z M217.802,73.489l53.85,53.851l-31.741,31.741l-53.851-53.851L217.802,73.489z M80.234,318.887l-53.98-53.851
	l31.741-31.741l53.851,53.85L80.234,318.887z M127.362,271.695l-53.851-53.851l31.741-31.741l53.851,53.851L127.362,271.695z
	 M211.855,261.869L50.368,100.382l49.972-49.972l77.188,77.188l-7.887,7.887c-4.267,4.267-4.267,11.119,0,15.451
	c4.267,4.267,11.119,4.267,15.451,0l7.887-7.887l14.739,14.739l-22.82,22.82c-4.267,4.267-4.267,11.119,0,15.451
	c4.267,4.267,11.119,4.267,15.451,0l22.82-22.82l38.788,38.788c-0.065,0.065-16.226,7.887-29.156,20.881
	c-13.834,13.834-20.622,28.638-20.622,28.638C212.113,261.545,211.984,261.675,211.855,261.869z"/>
</svg>
